<svg width="23" height="23" viewBox="0 0 23 23" fill="none" xmlns="http://www.w3.org/2000/svg">
<g filter="url(#filter0_d_524_56)">
<path d="M16.5 7V4" stroke="black" stroke-linecap="round" stroke-linejoin="round"/>
<path d="M18 5.5H15" stroke="black" stroke-linecap="round" stroke-linejoin="round"/>
<path d="M13.5 1.5V3.5" stroke="black" stroke-linecap="round" stroke-linejoin="round"/>
<path d="M14.5 2.5H12.5" stroke="black" stroke-linecap="round" stroke-linejoin="round"/>
<path d="M16.5436 9.53752C15.5619 9.8128 14.5247 9.82182 13.5384 9.56366C12.5521 9.3055 11.6522 8.78946 10.9313 8.06854C10.2104 7.34762 9.69436 6.4478 9.43619 5.46149C9.17803 4.47519 9.18706 3.43794 9.46233 2.45627C8.4945 2.72565 7.61413 3.24391 6.90892 3.95941C6.20371 4.67492 5.69827 5.56271 5.44295 6.53435C5.18763 7.50599 5.19133 8.52756 5.45369 9.49732C5.71605 10.4671 6.22791 11.3512 6.93829 12.0616C7.64866 12.7719 8.53276 13.2838 9.50253 13.5462C10.4723 13.8085 11.4939 13.8122 12.4655 13.5569C13.4371 13.3016 14.3249 12.7961 15.0404 12.0909C15.7559 11.3857 16.2742 10.5054 16.5436 9.53752Z" stroke="black" stroke-linecap="round" stroke-linejoin="round"/>
</g>
<defs>
<filter id="filter0_d_524_56" x="0.75415" y="1" width="21.7458" height="21.2457" filterUnits="userSpaceOnUse" color-interpolation-filters="sRGB">
<feFlood flood-opacity="0" result="BackgroundImageFix"/>
<feColorMatrix in="SourceAlpha" type="matrix" values="0 0 0 0 0 0 0 0 0 0 0 0 0 0 0 0 0 0 127 0" result="hardAlpha"/>
<feOffset dy="4"/>
<feGaussianBlur stdDeviation="2"/>
<feComposite in2="hardAlpha" operator="out"/>
<feColorMatrix type="matrix" values="0 0 0 0 0 0 0 0 0 0 0 0 0 0 0 0 0 0 0.25 0"/>
<feBlend mode="normal" in2="BackgroundImageFix" result="effect1_dropShadow_524_56"/>
<feBlend mode="normal" in="SourceGraphic" in2="effect1_dropShadow_524_56" result="shape"/>
</filter>
</defs>
</svg>
